M48
; DRILL file {KiCad (5.1.10)-1} date 06/29/21 11:34:27
; FORMAT={-:-/ absolute / metric / decimal}
; #@! TF.CreationDate,2021-06-29T11:34:27+10:00
; #@! TF.GenerationSoftware,Kicad,Pcbnew,(5.1.10)-1
; #@! TF.FileFunction,Plated,1,2,PTH
FMAT,2
METRIC
T1C0.800
T2C1.000
T3C1.400
T4C1.780
%
G90
G05
T1
X26.162Y117.856
X26.162Y107.442
X49.022Y121.539
T2
X14.42Y14.097
X14.42Y11.557
X14.42Y9.017
X24.58Y14.097
X24.58Y11.557
X24.58Y9.017
X223.774Y131.318
X223.774Y128.778
T3
X12.165Y129.325
X12.165Y123.825
X16.365Y129.325
X16.365Y123.825
X20.565Y129.325
X20.565Y123.825
X24.765Y129.325
X24.765Y123.825
X57.368Y129.325
X57.368Y123.825
X61.568Y129.325
X61.568Y123.825
X65.768Y129.325
X65.768Y123.825
X69.968Y129.325
X69.968Y123.825
X74.168Y129.325
X74.168Y123.825
X82.369Y129.325
X82.369Y123.825
X86.569Y129.325
X86.569Y123.825
X90.769Y129.325
X90.769Y123.825
X94.969Y129.325
X94.969Y123.825
X99.169Y129.325
X99.169Y123.825
X103.369Y129.325
X103.369Y123.825
X107.569Y129.325
X107.569Y123.825
T4
X117.475Y128.651
X122.555Y128.651
X127.635Y128.651
X132.715Y128.651
T0
M30
