%TF.GenerationSoftware,KiCad,Pcbnew,(5.1.10)-1*%
%TF.CreationDate,2021-06-29T11:34:31+10:00*%
%TF.ProjectId,psu-board,7073752d-626f-4617-9264-2e6b69636164,rev?*%
%TF.SameCoordinates,Original*%
%TF.FileFunction,Legend,Top*%
%TF.FilePolarity,Positive*%
%FSLAX46Y46*%
G04 Gerber Fmt 4.6, Leading zero omitted, Abs format (unit mm)*
G04 Created by KiCad (PCBNEW (5.1.10)-1) date 2021-06-29 11:34:31*
%MOMM*%
%LPD*%
G01*
G04 APERTURE LIST*
%ADD10C,0.150000*%
%ADD11C,0.120000*%
G04 APERTURE END LIST*
D10*
X22502761Y9477666D02*
X22550380Y9382428D01*
X22550380Y9191952D01*
X22502761Y9096714D01*
X22407523Y9049095D01*
X22026571Y9049095D01*
X21931333Y9096714D01*
X21883714Y9191952D01*
X21883714Y9382428D01*
X21931333Y9477666D01*
X22026571Y9525285D01*
X22121809Y9525285D01*
X22217047Y9049095D01*
X21883714Y9953857D02*
X22550380Y9953857D01*
X21978952Y9953857D02*
X21931333Y10001476D01*
X21883714Y10096714D01*
X21883714Y10239571D01*
X21931333Y10334809D01*
X22026571Y10382428D01*
X22550380Y10382428D01*
X22502761Y11287190D02*
X22550380Y11191952D01*
X22550380Y11001476D01*
X22502761Y10906238D01*
X22455142Y10858619D01*
X22359904Y10811000D01*
X22074190Y10811000D01*
X21978952Y10858619D01*
X21931333Y10906238D01*
X21883714Y11001476D01*
X21883714Y11191952D01*
X21931333Y11287190D01*
X22550380Y11858619D02*
X22502761Y11763380D01*
X22455142Y11715761D01*
X22359904Y11668142D01*
X22074190Y11668142D01*
X21978952Y11715761D01*
X21931333Y11763380D01*
X21883714Y11858619D01*
X21883714Y12001476D01*
X21931333Y12096714D01*
X21978952Y12144333D01*
X22074190Y12191952D01*
X22359904Y12191952D01*
X22455142Y12144333D01*
X22502761Y12096714D01*
X22550380Y12001476D01*
X22550380Y11858619D01*
X22550380Y13049095D02*
X21550380Y13049095D01*
X22502761Y13049095D02*
X22550380Y12953857D01*
X22550380Y12763380D01*
X22502761Y12668142D01*
X22455142Y12620523D01*
X22359904Y12572904D01*
X22074190Y12572904D01*
X21978952Y12620523D01*
X21931333Y12668142D01*
X21883714Y12763380D01*
X21883714Y12953857D01*
X21931333Y13049095D01*
X22502761Y13906238D02*
X22550380Y13811000D01*
X22550380Y13620523D01*
X22502761Y13525285D01*
X22407523Y13477666D01*
X22026571Y13477666D01*
X21931333Y13525285D01*
X21883714Y13620523D01*
X21883714Y13811000D01*
X21931333Y13906238D01*
X22026571Y13953857D01*
X22121809Y13953857D01*
X22217047Y13477666D01*
X22550380Y14382428D02*
X21883714Y14382428D01*
X22074190Y14382428D02*
X21978952Y14430047D01*
X21931333Y14477666D01*
X21883714Y14572904D01*
X21883714Y14668142D01*
X223154952Y133405619D02*
X222583523Y133405619D01*
X222869238Y133405619D02*
X222869238Y134405619D01*
X222774000Y134262761D01*
X222678761Y134167523D01*
X222583523Y134119904D01*
X223535904Y134310380D02*
X223583523Y134358000D01*
X223678761Y134405619D01*
X223916857Y134405619D01*
X224012095Y134358000D01*
X224059714Y134310380D01*
X224107333Y134215142D01*
X224107333Y134119904D01*
X224059714Y133977047D01*
X223488285Y133405619D01*
X224107333Y133405619D01*
X224393047Y134405619D02*
X224726380Y133405619D01*
X225059714Y134405619D01*
X121079095Y133588238D02*
X121079095Y135588238D01*
X121555285Y135588238D01*
X121841000Y135493000D01*
X122031476Y135302523D01*
X122126714Y135112047D01*
X122221952Y134731095D01*
X122221952Y134445380D01*
X122126714Y134064428D01*
X122031476Y133873952D01*
X121841000Y133683476D01*
X121555285Y133588238D01*
X121079095Y133588238D01*
X124221952Y133588238D02*
X123555285Y134540619D01*
X123079095Y133588238D02*
X123079095Y135588238D01*
X123841000Y135588238D01*
X124031476Y135493000D01*
X124126714Y135397761D01*
X124221952Y135207285D01*
X124221952Y134921571D01*
X124126714Y134731095D01*
X124031476Y134635857D01*
X123841000Y134540619D01*
X123079095Y134540619D01*
X125079095Y133588238D02*
X125079095Y135588238D01*
X125745761Y135588238D02*
X126412428Y133588238D01*
X127079095Y135588238D01*
X127745761Y134635857D02*
X128412428Y134635857D01*
X128698142Y133588238D02*
X127745761Y133588238D01*
X127745761Y135588238D01*
X128698142Y135588238D01*
X91710238Y133588238D02*
X90757857Y133588238D01*
X90757857Y135588238D01*
X92757857Y135588238D02*
X93138809Y135588238D01*
X93329285Y135493000D01*
X93519761Y135302523D01*
X93615000Y134921571D01*
X93615000Y134254904D01*
X93519761Y133873952D01*
X93329285Y133683476D01*
X93138809Y133588238D01*
X92757857Y133588238D01*
X92567380Y133683476D01*
X92376904Y133873952D01*
X92281666Y134254904D01*
X92281666Y134921571D01*
X92376904Y135302523D01*
X92567380Y135493000D01*
X92757857Y135588238D01*
X95519761Y135493000D02*
X95329285Y135588238D01*
X95043571Y135588238D01*
X94757857Y135493000D01*
X94567380Y135302523D01*
X94472142Y135112047D01*
X94376904Y134731095D01*
X94376904Y134445380D01*
X94472142Y134064428D01*
X94567380Y133873952D01*
X94757857Y133683476D01*
X95043571Y133588238D01*
X95234047Y133588238D01*
X95519761Y133683476D01*
X95615000Y133778714D01*
X95615000Y134445380D01*
X95234047Y134445380D01*
X96472142Y133588238D02*
X96472142Y135588238D01*
X98567380Y133778714D02*
X98472142Y133683476D01*
X98186428Y133588238D01*
X97995952Y133588238D01*
X97710238Y133683476D01*
X97519761Y133873952D01*
X97424523Y134064428D01*
X97329285Y134445380D01*
X97329285Y134731095D01*
X97424523Y135112047D01*
X97519761Y135302523D01*
X97710238Y135493000D01*
X97995952Y135588238D01*
X98186428Y135588238D01*
X98472142Y135493000D01*
X98567380Y135397761D01*
X63135190Y133588238D02*
X63135190Y135588238D01*
X63897095Y135588238D01*
X64087571Y135493000D01*
X64182809Y135397761D01*
X64278047Y135207285D01*
X64278047Y134921571D01*
X64182809Y134731095D01*
X64087571Y134635857D01*
X63897095Y134540619D01*
X63135190Y134540619D01*
X65039952Y133683476D02*
X65325666Y133588238D01*
X65801857Y133588238D01*
X65992333Y133683476D01*
X66087571Y133778714D01*
X66182809Y133969190D01*
X66182809Y134159666D01*
X66087571Y134350142D01*
X65992333Y134445380D01*
X65801857Y134540619D01*
X65420904Y134635857D01*
X65230428Y134731095D01*
X65135190Y134826333D01*
X65039952Y135016809D01*
X65039952Y135207285D01*
X65135190Y135397761D01*
X65230428Y135493000D01*
X65420904Y135588238D01*
X65897095Y135588238D01*
X66182809Y135493000D01*
X67039952Y135588238D02*
X67039952Y133969190D01*
X67135190Y133778714D01*
X67230428Y133683476D01*
X67420904Y133588238D01*
X67801857Y133588238D01*
X67992333Y133683476D01*
X68087571Y133778714D01*
X68182809Y133969190D01*
X68182809Y135588238D01*
X16907047Y133461238D02*
X15954666Y133461238D01*
X15954666Y135461238D01*
X18716571Y133651714D02*
X18621333Y133556476D01*
X18335619Y133461238D01*
X18145142Y133461238D01*
X17859428Y133556476D01*
X17668952Y133746952D01*
X17573714Y133937428D01*
X17478476Y134318380D01*
X17478476Y134604095D01*
X17573714Y134985047D01*
X17668952Y135175523D01*
X17859428Y135366000D01*
X18145142Y135461238D01*
X18335619Y135461238D01*
X18621333Y135366000D01*
X18716571Y135270761D01*
X19573714Y133461238D02*
X19573714Y135461238D01*
X20049904Y135461238D01*
X20335619Y135366000D01*
X20526095Y135175523D01*
X20621333Y134985047D01*
X20716571Y134604095D01*
X20716571Y134318380D01*
X20621333Y133937428D01*
X20526095Y133746952D01*
X20335619Y133556476D01*
X20049904Y133461238D01*
X19573714Y133461238D01*
D11*
X28200000Y4000000D02*
X245872000Y4000000D01*
X65200000Y117000000D02*
X28200000Y94000000D01*
X65200000Y117000000D02*
X232918000Y117000000D01*
X28200000Y4000000D02*
X28200000Y94000000D01*
D10*
X216606380Y178450952D02*
X216606380Y177879523D01*
X216606380Y178165238D02*
X215606380Y178165238D01*
X215749238Y178070000D01*
X215844476Y177974761D01*
X215892095Y177879523D01*
X215701619Y178831904D02*
X215654000Y178879523D01*
X215606380Y178974761D01*
X215606380Y179212857D01*
X215654000Y179308095D01*
X215701619Y179355714D01*
X215796857Y179403333D01*
X215892095Y179403333D01*
X216034952Y179355714D01*
X216606380Y178784285D01*
X216606380Y179403333D01*
X215606380Y179689047D02*
X216606380Y180022380D01*
X215606380Y180355714D01*
X17597380Y7787190D02*
X16930714Y7787190D01*
X17025952Y7787190D02*
X16978333Y7834809D01*
X16930714Y7930047D01*
X16930714Y8072904D01*
X16978333Y8168142D01*
X17073571Y8215761D01*
X17597380Y8215761D01*
X17073571Y8215761D02*
X16978333Y8263380D01*
X16930714Y8358619D01*
X16930714Y8501476D01*
X16978333Y8596714D01*
X17073571Y8644333D01*
X17597380Y8644333D01*
X17549761Y9501476D02*
X17597380Y9406238D01*
X17597380Y9215761D01*
X17549761Y9120523D01*
X17454523Y9072904D01*
X17073571Y9072904D01*
X16978333Y9120523D01*
X16930714Y9215761D01*
X16930714Y9406238D01*
X16978333Y9501476D01*
X17073571Y9549095D01*
X17168809Y9549095D01*
X17264047Y9072904D01*
X17549761Y10406238D02*
X17597380Y10311000D01*
X17597380Y10120523D01*
X17549761Y10025285D01*
X17502142Y9977666D01*
X17406904Y9930047D01*
X17121190Y9930047D01*
X17025952Y9977666D01*
X16978333Y10025285D01*
X16930714Y10120523D01*
X16930714Y10311000D01*
X16978333Y10406238D01*
X17597380Y10834809D02*
X16597380Y10834809D01*
X17597380Y11263380D02*
X17073571Y11263380D01*
X16978333Y11215761D01*
X16930714Y11120523D01*
X16930714Y10977666D01*
X16978333Y10882428D01*
X17025952Y10834809D01*
X17597380Y12168142D02*
X17073571Y12168142D01*
X16978333Y12120523D01*
X16930714Y12025285D01*
X16930714Y11834809D01*
X16978333Y11739571D01*
X17549761Y12168142D02*
X17597380Y12072904D01*
X17597380Y11834809D01*
X17549761Y11739571D01*
X17454523Y11691952D01*
X17359285Y11691952D01*
X17264047Y11739571D01*
X17216428Y11834809D01*
X17216428Y12072904D01*
X17168809Y12168142D01*
X16930714Y12644333D02*
X17597380Y12644333D01*
X17025952Y12644333D02*
X16978333Y12691952D01*
X16930714Y12787190D01*
X16930714Y12930047D01*
X16978333Y13025285D01*
X17073571Y13072904D01*
X17597380Y13072904D01*
X17597380Y13549095D02*
X16930714Y13549095D01*
X16597380Y13549095D02*
X16645000Y13501476D01*
X16692619Y13549095D01*
X16645000Y13596714D01*
X16597380Y13549095D01*
X16692619Y13549095D01*
X17549761Y14453857D02*
X17597380Y14358619D01*
X17597380Y14168142D01*
X17549761Y14072904D01*
X17502142Y14025285D01*
X17406904Y13977666D01*
X17121190Y13977666D01*
X17025952Y14025285D01*
X16978333Y14072904D01*
X16930714Y14168142D01*
X16930714Y14358619D01*
X16978333Y14453857D01*
X17597380Y15311000D02*
X17073571Y15311000D01*
X16978333Y15263380D01*
X16930714Y15168142D01*
X16930714Y14977666D01*
X16978333Y14882428D01*
X17549761Y15311000D02*
X17597380Y15215761D01*
X17597380Y14977666D01*
X17549761Y14882428D01*
X17454523Y14834809D01*
X17359285Y14834809D01*
X17264047Y14882428D01*
X17216428Y14977666D01*
X17216428Y15215761D01*
X17168809Y15311000D01*
X17597380Y15930047D02*
X17549761Y15834809D01*
X17454523Y15787190D01*
X16597380Y15787190D01*
X19232571Y20733333D02*
X19232571Y21066666D01*
X19756380Y21209523D02*
X19756380Y20733333D01*
X18756380Y20733333D01*
X18756380Y21209523D01*
X19089714Y21638095D02*
X19756380Y21638095D01*
X19184952Y21638095D02*
X19137333Y21685714D01*
X19089714Y21780952D01*
X19089714Y21923809D01*
X19137333Y22019047D01*
X19232571Y22066666D01*
X19756380Y22066666D01*
X19708761Y22971428D02*
X19756380Y22876190D01*
X19756380Y22685714D01*
X19708761Y22590476D01*
X19661142Y22542857D01*
X19565904Y22495238D01*
X19280190Y22495238D01*
X19184952Y22542857D01*
X19137333Y22590476D01*
X19089714Y22685714D01*
X19089714Y22876190D01*
X19137333Y22971428D01*
X19756380Y23542857D02*
X19708761Y23447619D01*
X19661142Y23400000D01*
X19565904Y23352380D01*
X19280190Y23352380D01*
X19184952Y23400000D01*
X19137333Y23447619D01*
X19089714Y23542857D01*
X19089714Y23685714D01*
X19137333Y23780952D01*
X19184952Y23828571D01*
X19280190Y23876190D01*
X19565904Y23876190D01*
X19661142Y23828571D01*
X19708761Y23780952D01*
X19756380Y23685714D01*
X19756380Y23542857D01*
X19756380Y24733333D02*
X18756380Y24733333D01*
X19708761Y24733333D02*
X19756380Y24638095D01*
X19756380Y24447619D01*
X19708761Y24352380D01*
X19661142Y24304761D01*
X19565904Y24257142D01*
X19280190Y24257142D01*
X19184952Y24304761D01*
X19137333Y24352380D01*
X19089714Y24447619D01*
X19089714Y24638095D01*
X19137333Y24733333D01*
X19708761Y25590476D02*
X19756380Y25495238D01*
X19756380Y25304761D01*
X19708761Y25209523D01*
X19613523Y25161904D01*
X19232571Y25161904D01*
X19137333Y25209523D01*
X19089714Y25304761D01*
X19089714Y25495238D01*
X19137333Y25590476D01*
X19232571Y25638095D01*
X19327809Y25638095D01*
X19423047Y25161904D01*
X19756380Y26066666D02*
X19089714Y26066666D01*
X19280190Y26066666D02*
X19184952Y26114285D01*
X19137333Y26161904D01*
X19089714Y26257142D01*
X19089714Y26352380D01*
X19089714Y27447619D02*
X20089714Y27447619D01*
X19137333Y27447619D02*
X19089714Y27542857D01*
X19089714Y27733333D01*
X19137333Y27828571D01*
X19184952Y27876190D01*
X19280190Y27923809D01*
X19565904Y27923809D01*
X19661142Y27876190D01*
X19708761Y27828571D01*
X19756380Y27733333D01*
X19756380Y27542857D01*
X19708761Y27447619D01*
X19756380Y28352380D02*
X19089714Y28352380D01*
X18756380Y28352380D02*
X18804000Y28304761D01*
X18851619Y28352380D01*
X18804000Y28400000D01*
X18756380Y28352380D01*
X18851619Y28352380D01*
X19089714Y28828571D02*
X19756380Y28828571D01*
X19184952Y28828571D02*
X19137333Y28876190D01*
X19089714Y28971428D01*
X19089714Y29114285D01*
X19137333Y29209523D01*
X19232571Y29257142D01*
X19756380Y29257142D01*
X19708761Y29685714D02*
X19756380Y29780952D01*
X19756380Y29971428D01*
X19708761Y30066666D01*
X19613523Y30114285D01*
X19565904Y30114285D01*
X19470666Y30066666D01*
X19423047Y29971428D01*
X19423047Y29828571D01*
X19375428Y29733333D01*
X19280190Y29685714D01*
X19232571Y29685714D01*
X19137333Y29733333D01*
X19089714Y29828571D01*
X19089714Y29971428D01*
X19137333Y30066666D01*
D11*
X19500000Y20000000D02*
X19500000Y5000000D01*
X10000000Y96500000D02*
X1000000Y96500000D01*
X10000000Y35000000D02*
X1000000Y35000000D01*
X10000000Y96500000D02*
X10000000Y35000000D01*
D10*
X2642238Y136826714D02*
X2547000Y136731476D01*
X2261285Y136636238D01*
X2070809Y136636238D01*
X1785095Y136731476D01*
X1594619Y136921952D01*
X1499380Y137112428D01*
X1404142Y137493380D01*
X1404142Y137779095D01*
X1499380Y138160047D01*
X1594619Y138350523D01*
X1785095Y138541000D01*
X2070809Y138636238D01*
X2261285Y138636238D01*
X2547000Y138541000D01*
X2642238Y138445761D01*
X3785095Y136636238D02*
X3594619Y136731476D01*
X3499380Y136826714D01*
X3404142Y137017190D01*
X3404142Y137588619D01*
X3499380Y137779095D01*
X3594619Y137874333D01*
X3785095Y137969571D01*
X4070809Y137969571D01*
X4261285Y137874333D01*
X4356523Y137779095D01*
X4451761Y137588619D01*
X4451761Y137017190D01*
X4356523Y136826714D01*
X4261285Y136731476D01*
X4070809Y136636238D01*
X3785095Y136636238D01*
X5308904Y136636238D02*
X5308904Y137969571D01*
X5308904Y137779095D02*
X5404142Y137874333D01*
X5594619Y137969571D01*
X5880333Y137969571D01*
X6070809Y137874333D01*
X6166047Y137683857D01*
X6166047Y136636238D01*
X6166047Y137683857D02*
X6261285Y137874333D01*
X6451761Y137969571D01*
X6737476Y137969571D01*
X6927952Y137874333D01*
X7023190Y137683857D01*
X7023190Y136636238D01*
X7975571Y137969571D02*
X7975571Y135969571D01*
X7975571Y137874333D02*
X8166047Y137969571D01*
X8547000Y137969571D01*
X8737476Y137874333D01*
X8832714Y137779095D01*
X8927952Y137588619D01*
X8927952Y137017190D01*
X8832714Y136826714D01*
X8737476Y136731476D01*
X8547000Y136636238D01*
X8166047Y136636238D01*
X7975571Y136731476D01*
X10642238Y136636238D02*
X10642238Y137683857D01*
X10547000Y137874333D01*
X10356523Y137969571D01*
X9975571Y137969571D01*
X9785095Y137874333D01*
X10642238Y136731476D02*
X10451761Y136636238D01*
X9975571Y136636238D01*
X9785095Y136731476D01*
X9689857Y136921952D01*
X9689857Y137112428D01*
X9785095Y137302904D01*
X9975571Y137398142D01*
X10451761Y137398142D01*
X10642238Y137493380D01*
X12451761Y136731476D02*
X12261285Y136636238D01*
X11880333Y136636238D01*
X11689857Y136731476D01*
X11594619Y136826714D01*
X11499380Y137017190D01*
X11499380Y137588619D01*
X11594619Y137779095D01*
X11689857Y137874333D01*
X11880333Y137969571D01*
X12261285Y137969571D01*
X12451761Y137874333D01*
X13023190Y137969571D02*
X13785095Y137969571D01*
X13308904Y138636238D02*
X13308904Y136921952D01*
X13404142Y136731476D01*
X13594619Y136636238D01*
X13785095Y136636238D01*
X15975571Y136636238D02*
X15975571Y138636238D01*
X16642238Y137207666D01*
X17308904Y138636238D01*
X17308904Y136636238D01*
X19118428Y136636238D02*
X19118428Y137683857D01*
X19023190Y137874333D01*
X18832714Y137969571D01*
X18451761Y137969571D01*
X18261285Y137874333D01*
X19118428Y136731476D02*
X18927952Y136636238D01*
X18451761Y136636238D01*
X18261285Y136731476D01*
X18166047Y136921952D01*
X18166047Y137112428D01*
X18261285Y137302904D01*
X18451761Y137398142D01*
X18927952Y137398142D01*
X19118428Y137493380D01*
X20927952Y136731476D02*
X20737476Y136636238D01*
X20356523Y136636238D01*
X20166047Y136731476D01*
X20070809Y136826714D01*
X19975571Y137017190D01*
X19975571Y137588619D01*
X20070809Y137779095D01*
X20166047Y137874333D01*
X20356523Y137969571D01*
X20737476Y137969571D01*
X20927952Y137874333D01*
X21785095Y136636238D02*
X21785095Y137969571D01*
X21785095Y138636238D02*
X21689857Y138541000D01*
X21785095Y138445761D01*
X21880333Y138541000D01*
X21785095Y138636238D01*
X21785095Y138445761D01*
X22737476Y137969571D02*
X22737476Y136636238D01*
X22737476Y137779095D02*
X22832714Y137874333D01*
X23023190Y137969571D01*
X23308904Y137969571D01*
X23499380Y137874333D01*
X23594619Y137683857D01*
X23594619Y136636238D01*
X24261285Y137969571D02*
X25023190Y137969571D01*
X24547000Y138636238D02*
X24547000Y136921952D01*
X24642238Y136731476D01*
X24832714Y136636238D01*
X25023190Y136636238D01*
X25975571Y136636238D02*
X25785095Y136731476D01*
X25689857Y136826714D01*
X25594619Y137017190D01*
X25594619Y137588619D01*
X25689857Y137779095D01*
X25785095Y137874333D01*
X25975571Y137969571D01*
X26261285Y137969571D01*
X26451761Y137874333D01*
X26547000Y137779095D01*
X26642238Y137588619D01*
X26642238Y137017190D01*
X26547000Y136826714D01*
X26451761Y136731476D01*
X26261285Y136636238D01*
X25975571Y136636238D01*
X27404142Y136731476D02*
X27594619Y136636238D01*
X27975571Y136636238D01*
X28166047Y136731476D01*
X28261285Y136921952D01*
X28261285Y137017190D01*
X28166047Y137207666D01*
X27975571Y137302904D01*
X27689857Y137302904D01*
X27499380Y137398142D01*
X27404142Y137588619D01*
X27404142Y137683857D01*
X27499380Y137874333D01*
X27689857Y137969571D01*
X27975571Y137969571D01*
X28166047Y137874333D01*
X29118428Y136636238D02*
X29118428Y138636238D01*
X29975571Y136636238D02*
X29975571Y137683857D01*
X29880333Y137874333D01*
X29689857Y137969571D01*
X29404142Y137969571D01*
X29213666Y137874333D01*
X29118428Y137779095D01*
X32451761Y136636238D02*
X32451761Y137969571D01*
X32451761Y137588619D02*
X32547000Y137779095D01*
X32642238Y137874333D01*
X32832714Y137969571D01*
X33023190Y137969571D01*
X34451761Y136731476D02*
X34261285Y136636238D01*
X33880333Y136636238D01*
X33689857Y136731476D01*
X33594619Y136921952D01*
X33594619Y137683857D01*
X33689857Y137874333D01*
X33880333Y137969571D01*
X34261285Y137969571D01*
X34451761Y137874333D01*
X34547000Y137683857D01*
X34547000Y137493380D01*
X33594619Y137302904D01*
X35404142Y137969571D02*
X35404142Y135969571D01*
X35404142Y137874333D02*
X35594619Y137969571D01*
X35975571Y137969571D01*
X36166047Y137874333D01*
X36261285Y137779095D01*
X36356523Y137588619D01*
X36356523Y137017190D01*
X36261285Y136826714D01*
X36166047Y136731476D01*
X35975571Y136636238D01*
X35594619Y136636238D01*
X35404142Y136731476D01*
X37499380Y136636238D02*
X37308904Y136731476D01*
X37213666Y136921952D01*
X37213666Y138636238D01*
X39118428Y136636238D02*
X39118428Y137683857D01*
X39023190Y137874333D01*
X38832714Y137969571D01*
X38451761Y137969571D01*
X38261285Y137874333D01*
X39118428Y136731476D02*
X38927952Y136636238D01*
X38451761Y136636238D01*
X38261285Y136731476D01*
X38166047Y136921952D01*
X38166047Y137112428D01*
X38261285Y137302904D01*
X38451761Y137398142D01*
X38927952Y137398142D01*
X39118428Y137493380D01*
X40927952Y136731476D02*
X40737476Y136636238D01*
X40356523Y136636238D01*
X40166047Y136731476D01*
X40070809Y136826714D01*
X39975571Y137017190D01*
X39975571Y137588619D01*
X40070809Y137779095D01*
X40166047Y137874333D01*
X40356523Y137969571D01*
X40737476Y137969571D01*
X40927952Y137874333D01*
X42547000Y136731476D02*
X42356523Y136636238D01*
X41975571Y136636238D01*
X41785095Y136731476D01*
X41689857Y136921952D01*
X41689857Y137683857D01*
X41785095Y137874333D01*
X41975571Y137969571D01*
X42356523Y137969571D01*
X42547000Y137874333D01*
X42642238Y137683857D01*
X42642238Y137493380D01*
X41689857Y137302904D01*
X43499380Y136636238D02*
X43499380Y137969571D01*
X43499380Y137779095D02*
X43594619Y137874333D01*
X43785095Y137969571D01*
X44070809Y137969571D01*
X44261285Y137874333D01*
X44356523Y137683857D01*
X44356523Y136636238D01*
X44356523Y137683857D02*
X44451761Y137874333D01*
X44642238Y137969571D01*
X44927952Y137969571D01*
X45118428Y137874333D01*
X45213666Y137683857D01*
X45213666Y136636238D01*
X46927952Y136731476D02*
X46737476Y136636238D01*
X46356523Y136636238D01*
X46166047Y136731476D01*
X46070809Y136921952D01*
X46070809Y137683857D01*
X46166047Y137874333D01*
X46356523Y137969571D01*
X46737476Y137969571D01*
X46927952Y137874333D01*
X47023190Y137683857D01*
X47023190Y137493380D01*
X46070809Y137302904D01*
X47880333Y137969571D02*
X47880333Y136636238D01*
X47880333Y137779095D02*
X47975571Y137874333D01*
X48166047Y137969571D01*
X48451761Y137969571D01*
X48642238Y137874333D01*
X48737476Y137683857D01*
X48737476Y136636238D01*
X49404142Y137969571D02*
X50166047Y137969571D01*
X49689857Y138636238D02*
X49689857Y136921952D01*
X49785095Y136731476D01*
X49975571Y136636238D01*
X50166047Y136636238D01*
X52356523Y137969571D02*
X52356523Y135969571D01*
X52356523Y137874333D02*
X52546999Y137969571D01*
X52927952Y137969571D01*
X53118428Y137874333D01*
X53213666Y137779095D01*
X53308904Y137588619D01*
X53308904Y137017190D01*
X53213666Y136826714D01*
X53118428Y136731476D01*
X52927952Y136636238D01*
X52546999Y136636238D01*
X52356523Y136731476D01*
X54451761Y136636238D02*
X54261285Y136731476D01*
X54166047Y136826714D01*
X54070809Y137017190D01*
X54070809Y137588619D01*
X54166047Y137779095D01*
X54261285Y137874333D01*
X54451761Y137969571D01*
X54737476Y137969571D01*
X54927952Y137874333D01*
X55023190Y137779095D01*
X55118428Y137588619D01*
X55118428Y137017190D01*
X55023190Y136826714D01*
X54927952Y136731476D01*
X54737476Y136636238D01*
X54451761Y136636238D01*
X55785095Y137969571D02*
X56166047Y136636238D01*
X56546999Y137588619D01*
X56927952Y136636238D01*
X57308904Y137969571D01*
X58832714Y136731476D02*
X58642238Y136636238D01*
X58261285Y136636238D01*
X58070809Y136731476D01*
X57975571Y136921952D01*
X57975571Y137683857D01*
X58070809Y137874333D01*
X58261285Y137969571D01*
X58642238Y137969571D01*
X58832714Y137874333D01*
X58927952Y137683857D01*
X58927952Y137493380D01*
X57975571Y137302904D01*
X59785095Y136636238D02*
X59785095Y137969571D01*
X59785095Y137588619D02*
X59880333Y137779095D01*
X59975571Y137874333D01*
X60166047Y137969571D01*
X60356523Y137969571D01*
X62451761Y136731476D02*
X62642238Y136636238D01*
X63023190Y136636238D01*
X63213666Y136731476D01*
X63308904Y136921952D01*
X63308904Y137017190D01*
X63213666Y137207666D01*
X63023190Y137302904D01*
X62737476Y137302904D01*
X62546999Y137398142D01*
X62451761Y137588619D01*
X62451761Y137683857D01*
X62546999Y137874333D01*
X62737476Y137969571D01*
X63023190Y137969571D01*
X63213666Y137874333D01*
X65023190Y137969571D02*
X65023190Y136636238D01*
X64166047Y137969571D02*
X64166047Y136921952D01*
X64261285Y136731476D01*
X64451761Y136636238D01*
X64737476Y136636238D01*
X64927952Y136731476D01*
X65023190Y136826714D01*
X65975571Y137969571D02*
X65975571Y135969571D01*
X65975571Y137874333D02*
X66166047Y137969571D01*
X66546999Y137969571D01*
X66737476Y137874333D01*
X66832714Y137779095D01*
X66927952Y137588619D01*
X66927952Y137017190D01*
X66832714Y136826714D01*
X66737476Y136731476D01*
X66546999Y136636238D01*
X66166047Y136636238D01*
X65975571Y136731476D01*
X67785095Y137969571D02*
X67785095Y135969571D01*
X67785095Y137874333D02*
X67975571Y137969571D01*
X68356523Y137969571D01*
X68546999Y137874333D01*
X68642238Y137779095D01*
X68737476Y137588619D01*
X68737476Y137017190D01*
X68642238Y136826714D01*
X68546999Y136731476D01*
X68356523Y136636238D01*
X67975571Y136636238D01*
X67785095Y136731476D01*
X69880333Y136636238D02*
X69689857Y136731476D01*
X69594619Y136921952D01*
X69594619Y138636238D01*
X70451761Y137969571D02*
X70927952Y136636238D01*
X71404142Y137969571D02*
X70927952Y136636238D01*
X70737476Y136160047D01*
X70642238Y136064809D01*
X70451761Y135969571D01*
X73689857Y137398142D02*
X75213666Y137398142D01*
X78546999Y137969571D02*
X78546999Y136350523D01*
X78451761Y136160047D01*
X78356523Y136064809D01*
X78166047Y135969571D01*
X77880333Y135969571D01*
X77689857Y136064809D01*
X78546999Y136731476D02*
X78356523Y136636238D01*
X77975571Y136636238D01*
X77785095Y136731476D01*
X77689857Y136826714D01*
X77594619Y137017190D01*
X77594619Y137588619D01*
X77689857Y137779095D01*
X77785095Y137874333D01*
X77975571Y137969571D01*
X78356523Y137969571D01*
X78546999Y137874333D01*
X79499380Y136636238D02*
X79499380Y137969571D01*
X79499380Y137588619D02*
X79594619Y137779095D01*
X79689857Y137874333D01*
X79880333Y137969571D01*
X80070809Y137969571D01*
X81594619Y136636238D02*
X81594619Y137683857D01*
X81499380Y137874333D01*
X81308904Y137969571D01*
X80927952Y137969571D01*
X80737476Y137874333D01*
X81594619Y136731476D02*
X81404142Y136636238D01*
X80927952Y136636238D01*
X80737476Y136731476D01*
X80642238Y136921952D01*
X80642238Y137112428D01*
X80737476Y137302904D01*
X80927952Y137398142D01*
X81404142Y137398142D01*
X81594619Y137493380D01*
X82356523Y137969571D02*
X82832714Y136636238D01*
X83308904Y137969571D02*
X82832714Y136636238D01*
X82642238Y136160047D01*
X82546999Y136064809D01*
X82356523Y135969571D01*
X84927952Y137969571D02*
X84927952Y136636238D01*
X84070809Y137969571D02*
X84070809Y136921952D01*
X84166047Y136731476D01*
X84356523Y136636238D01*
X84642238Y136636238D01*
X84832714Y136731476D01*
X84927952Y136826714D01*
X85880333Y137969571D02*
X85880333Y136636238D01*
X85880333Y137779095D02*
X85975571Y137874333D01*
X86166047Y137969571D01*
X86451761Y137969571D01*
X86642238Y137874333D01*
X86737476Y137683857D01*
X86737476Y136636238D01*
X87689857Y136636238D02*
X87689857Y137969571D01*
X87689857Y138636238D02*
X87594619Y138541000D01*
X87689857Y138445761D01*
X87785095Y138541000D01*
X87689857Y138636238D01*
X87689857Y138445761D01*
X89499380Y136731476D02*
X89308904Y136636238D01*
X88927952Y136636238D01*
X88737476Y136731476D01*
X88642238Y136826714D01*
X88546999Y137017190D01*
X88546999Y137588619D01*
X88642238Y137779095D01*
X88737476Y137874333D01*
X88927952Y137969571D01*
X89308904Y137969571D01*
X89499380Y137874333D01*
X90642238Y136636238D02*
X90451761Y136731476D01*
X90356523Y136826714D01*
X90261285Y137017190D01*
X90261285Y137588619D01*
X90356523Y137779095D01*
X90451761Y137874333D01*
X90642238Y137969571D01*
X90927952Y137969571D01*
X91118428Y137874333D01*
X91213666Y137779095D01*
X91308904Y137588619D01*
X91308904Y137017190D01*
X91213666Y136826714D01*
X91118428Y136731476D01*
X90927952Y136636238D01*
X90642238Y136636238D01*
X92166047Y136636238D02*
X92166047Y137969571D01*
X92166047Y137588619D02*
X92261285Y137779095D01*
X92356523Y137874333D01*
X92546999Y137969571D01*
X92737476Y137969571D01*
X93404142Y137969571D02*
X93404142Y136636238D01*
X93404142Y137779095D02*
X93499380Y137874333D01*
X93689857Y137969571D01*
X93975571Y137969571D01*
X94166047Y137874333D01*
X94261285Y137683857D01*
X94261285Y136636238D01*
X95213666Y136826714D02*
X95308904Y136731476D01*
X95213666Y136636238D01*
X95118428Y136731476D01*
X95213666Y136826714D01*
X95213666Y136636238D01*
X97023190Y136731476D02*
X96832714Y136636238D01*
X96451761Y136636238D01*
X96261285Y136731476D01*
X96166047Y136826714D01*
X96070809Y137017190D01*
X96070809Y137588619D01*
X96166047Y137779095D01*
X96261285Y137874333D01*
X96451761Y137969571D01*
X96832714Y137969571D01*
X97023190Y137874333D01*
X98166047Y136636238D02*
X97975571Y136731476D01*
X97880333Y136826714D01*
X97785095Y137017190D01*
X97785095Y137588619D01*
X97880333Y137779095D01*
X97975571Y137874333D01*
X98166047Y137969571D01*
X98451761Y137969571D01*
X98642238Y137874333D01*
X98737476Y137779095D01*
X98832714Y137588619D01*
X98832714Y137017190D01*
X98737476Y136826714D01*
X98642238Y136731476D01*
X98451761Y136636238D01*
X98166047Y136636238D01*
X99689857Y136636238D02*
X99689857Y137969571D01*
X99689857Y137779095D02*
X99785095Y137874333D01*
X99975571Y137969571D01*
X100261285Y137969571D01*
X100451761Y137874333D01*
X100546999Y137683857D01*
X100546999Y136636238D01*
X100546999Y137683857D02*
X100642238Y137874333D01*
X100832714Y137969571D01*
X101118428Y137969571D01*
X101308904Y137874333D01*
X101404142Y137683857D01*
X101404142Y136636238D01*
X103880333Y137398142D02*
X105404142Y137398142D01*
X109023190Y136636238D02*
X108356523Y137588619D01*
X107880333Y136636238D02*
X107880333Y138636238D01*
X108642238Y138636238D01*
X108832714Y138541000D01*
X108927952Y138445761D01*
X109023190Y138255285D01*
X109023190Y137969571D01*
X108927952Y137779095D01*
X108832714Y137683857D01*
X108642238Y137588619D01*
X107880333Y137588619D01*
X110642238Y136731476D02*
X110451761Y136636238D01*
X110070809Y136636238D01*
X109880333Y136731476D01*
X109785095Y136921952D01*
X109785095Y137683857D01*
X109880333Y137874333D01*
X110070809Y137969571D01*
X110451761Y137969571D01*
X110642238Y137874333D01*
X110737476Y137683857D01*
X110737476Y137493380D01*
X109785095Y137302904D01*
X111404142Y137969571D02*
X111880333Y136636238D01*
X112356523Y137969571D01*
X114451761Y138636238D02*
X115689857Y138636238D01*
X115023190Y137874333D01*
X115308904Y137874333D01*
X115499380Y137779095D01*
X115594619Y137683857D01*
X115689857Y137493380D01*
X115689857Y137017190D01*
X115594619Y136826714D01*
X115499380Y136731476D01*
X115308904Y136636238D01*
X114737476Y136636238D01*
X114546999Y136731476D01*
X114451761Y136826714D01*
D11*
%TO.C,C3*%
X46012000Y110189000D02*
X47012000Y110189000D01*
X46512000Y109689000D02*
X46512000Y110689000D01*
X52217563Y110929000D02*
X53282000Y111993437D01*
X45826437Y110929000D02*
X44762000Y111993437D01*
X45826437Y110929000D02*
X47512000Y110929000D01*
X52217563Y110929000D02*
X50532000Y110929000D01*
X53282000Y111993437D02*
X53282000Y119449000D01*
X44762000Y111993437D02*
X44762000Y119449000D01*
X44762000Y119449000D02*
X47512000Y119449000D01*
X53282000Y119449000D02*
X50532000Y119449000D01*
%TO.C,SW1*%
X13090000Y15427000D02*
X14420000Y15427000D01*
X13090000Y14097000D02*
X13090000Y15427000D01*
X13090000Y12827000D02*
X15750000Y12827000D01*
X15750000Y12827000D02*
X15750000Y7687000D01*
X13090000Y12827000D02*
X13090000Y7687000D01*
X13090000Y7687000D02*
X15750000Y7687000D01*
%TO.C,U1*%
X34364000Y119119000D02*
X32864000Y119119000D01*
X32864000Y119119000D02*
X32864000Y117309000D01*
X32864000Y117309000D02*
X27739000Y117309000D01*
X34364000Y108719000D02*
X32864000Y108719000D01*
X32864000Y108719000D02*
X32864000Y110529000D01*
X32864000Y110529000D02*
X31764000Y110529000D01*
%TO.C,C2*%
X25427000Y110101748D02*
X25427000Y110624252D01*
X26897000Y110101748D02*
X26897000Y110624252D01*
%TO.C,C1*%
X26897000Y115196252D02*
X26897000Y114673748D01*
X25427000Y115196252D02*
X25427000Y114673748D01*
%TO.C,J1*%
X65768000Y121465000D02*
X76978000Y121465000D01*
X76978000Y121465000D02*
X76978000Y131285000D01*
X76978000Y131285000D02*
X67578000Y131285000D01*
X67578000Y131285000D02*
X67578000Y132685000D01*
X67578000Y132685000D02*
X65768000Y132685000D01*
X65768000Y121465000D02*
X54558000Y121465000D01*
X54558000Y121465000D02*
X54558000Y131285000D01*
X54558000Y131285000D02*
X63958000Y131285000D01*
X63958000Y131285000D02*
X63958000Y132685000D01*
X63958000Y132685000D02*
X65768000Y132685000D01*
X74368000Y121225000D02*
X77218000Y121225000D01*
X77218000Y121225000D02*
X77218000Y124075000D01*
%TO.C,J2*%
X18465000Y121465000D02*
X27575000Y121465000D01*
X27575000Y121465000D02*
X27575000Y131285000D01*
X27575000Y131285000D02*
X20275000Y131285000D01*
X20275000Y131285000D02*
X20275000Y132685000D01*
X20275000Y132685000D02*
X18465000Y132685000D01*
X18465000Y121465000D02*
X9355000Y121465000D01*
X9355000Y121465000D02*
X9355000Y131285000D01*
X9355000Y131285000D02*
X16655000Y131285000D01*
X16655000Y131285000D02*
X16655000Y132685000D01*
X16655000Y132685000D02*
X18465000Y132685000D01*
X24965000Y121225000D02*
X27815000Y121225000D01*
X27815000Y121225000D02*
X27815000Y124075000D01*
%TO.C,SW1*%
X23250000Y15427000D02*
X24580000Y15427000D01*
X23250000Y14097000D02*
X23250000Y15427000D01*
X23250000Y12827000D02*
X25910000Y12827000D01*
X25910000Y12827000D02*
X25910000Y7687000D01*
X23250000Y12827000D02*
X23250000Y7687000D01*
X23250000Y7687000D02*
X25910000Y7687000D01*
%TO.C,J4*%
X130295000Y122981000D02*
X128605000Y122981000D01*
X128605000Y122981000D02*
X128605000Y124371000D01*
X130295000Y124371000D02*
X130295000Y122981000D01*
X125215000Y124371000D02*
X125215000Y122981000D01*
X123525000Y122981000D02*
X123525000Y124371000D01*
X125215000Y122981000D02*
X123525000Y122981000D01*
X120115000Y122981000D02*
X118425000Y122981000D01*
X120115000Y124371000D02*
X120115000Y122981000D01*
X118425000Y122981000D02*
X118425000Y124371000D01*
X135185000Y124371000D02*
X135185000Y122981000D01*
X133495000Y122981000D02*
X133495000Y124371000D01*
X135185000Y122981000D02*
X133495000Y122981000D01*
X115015000Y122981000D02*
X113325000Y122981000D01*
X115015000Y124371000D02*
X115015000Y122981000D01*
X137945000Y126791000D02*
X136865000Y126791000D01*
X137945000Y130511000D02*
X137945000Y126791000D01*
X136865000Y130511000D02*
X137945000Y130511000D01*
X112245000Y126791000D02*
X113325000Y126791000D01*
X112245000Y130511000D02*
X112245000Y126791000D01*
X113325000Y130511000D02*
X112245000Y130511000D01*
X136865000Y125511000D02*
X136865000Y131791000D01*
X114465000Y124371000D02*
X135725000Y124371000D01*
X113325000Y131791000D02*
X113325000Y122981000D01*
X135725000Y132931000D02*
X114465000Y132931000D01*
X135665000Y130041000D02*
X135665000Y125431000D01*
X133835000Y131871000D02*
X135665000Y130041000D01*
X116355000Y131871000D02*
X133835000Y131871000D01*
X114525000Y130041000D02*
X116355000Y131871000D01*
X114525000Y125431000D02*
X114525000Y130041000D01*
X135665000Y125431000D02*
X114525000Y125431000D01*
X135725000Y132931000D02*
G75*
G02*
X136865000Y131791000I0J-1140000D01*
G01*
X136865000Y125511000D02*
G75*
G02*
X135725000Y124371000I-1140000J0D01*
G01*
X113325000Y131791000D02*
G75*
G02*
X114465000Y132931000I1140000J0D01*
G01*
X114465000Y124371000D02*
G75*
G02*
X113325000Y125511000I0J1140000D01*
G01*
%TO.C,J3*%
X222444000Y132648000D02*
X223774000Y132648000D01*
X222444000Y131318000D02*
X222444000Y132648000D01*
X222444000Y130048000D02*
X225104000Y130048000D01*
X225104000Y130048000D02*
X225104000Y127448000D01*
X222444000Y130048000D02*
X222444000Y127448000D01*
X222444000Y127448000D02*
X225104000Y127448000D01*
%TO.C,J5*%
X110619000Y121225000D02*
X110619000Y124075000D01*
X107769000Y121225000D02*
X110619000Y121225000D01*
X93159000Y132685000D02*
X94969000Y132685000D01*
X93159000Y131285000D02*
X93159000Y132685000D01*
X79559000Y131285000D02*
X93159000Y131285000D01*
X79559000Y121465000D02*
X79559000Y131285000D01*
X94969000Y121465000D02*
X79559000Y121465000D01*
X96779000Y132685000D02*
X94969000Y132685000D01*
X96779000Y131285000D02*
X96779000Y132685000D01*
X110379000Y131285000D02*
X96779000Y131285000D01*
X110379000Y121465000D02*
X110379000Y131285000D01*
X94969000Y121465000D02*
X110379000Y121465000D01*
%TO.C,C3*%
D10*
X45172333Y120165857D02*
X45124714Y120118238D01*
X44981857Y120070619D01*
X44886619Y120070619D01*
X44743761Y120118238D01*
X44648523Y120213476D01*
X44600904Y120308714D01*
X44553285Y120499190D01*
X44553285Y120642047D01*
X44600904Y120832523D01*
X44648523Y120927761D01*
X44743761Y121023000D01*
X44886619Y121070619D01*
X44981857Y121070619D01*
X45124714Y121023000D01*
X45172333Y120975380D01*
X45505666Y121070619D02*
X46124714Y121070619D01*
X45791380Y120689666D01*
X45934238Y120689666D01*
X46029476Y120642047D01*
X46077095Y120594428D01*
X46124714Y120499190D01*
X46124714Y120261095D01*
X46077095Y120165857D01*
X46029476Y120118238D01*
X45934238Y120070619D01*
X45648523Y120070619D01*
X45553285Y120118238D01*
X45505666Y120165857D01*
%TO.C,U1*%
X35052095Y121116619D02*
X35052095Y120307095D01*
X35099714Y120211857D01*
X35147333Y120164238D01*
X35242571Y120116619D01*
X35433047Y120116619D01*
X35528285Y120164238D01*
X35575904Y120211857D01*
X35623523Y120307095D01*
X35623523Y121116619D01*
X36623523Y120116619D02*
X36052095Y120116619D01*
X36337809Y120116619D02*
X36337809Y121116619D01*
X36242571Y120973761D01*
X36147333Y120878523D01*
X36052095Y120830904D01*
%TO.C,C2*%
X24614142Y110323333D02*
X24661761Y110275714D01*
X24709380Y110132857D01*
X24709380Y110037619D01*
X24661761Y109894761D01*
X24566523Y109799523D01*
X24471285Y109751904D01*
X24280809Y109704285D01*
X24137952Y109704285D01*
X23947476Y109751904D01*
X23852238Y109799523D01*
X23757000Y109894761D01*
X23709380Y110037619D01*
X23709380Y110132857D01*
X23757000Y110275714D01*
X23804619Y110323333D01*
X23804619Y110704285D02*
X23757000Y110751904D01*
X23709380Y110847142D01*
X23709380Y111085238D01*
X23757000Y111180476D01*
X23804619Y111228095D01*
X23899857Y111275714D01*
X23995095Y111275714D01*
X24137952Y111228095D01*
X24709380Y110656666D01*
X24709380Y111275714D01*
%TO.C,C1*%
X24614142Y114768333D02*
X24661761Y114720714D01*
X24709380Y114577857D01*
X24709380Y114482619D01*
X24661761Y114339761D01*
X24566523Y114244523D01*
X24471285Y114196904D01*
X24280809Y114149285D01*
X24137952Y114149285D01*
X23947476Y114196904D01*
X23852238Y114244523D01*
X23757000Y114339761D01*
X23709380Y114482619D01*
X23709380Y114577857D01*
X23757000Y114720714D01*
X23804619Y114768333D01*
X24709380Y115720714D02*
X24709380Y115149285D01*
X24709380Y115435000D02*
X23709380Y115435000D01*
X23852238Y115339761D01*
X23947476Y115244523D01*
X23995095Y115149285D01*
%TD*%
M02*
