%TF.GenerationSoftware,KiCad,Pcbnew,(5.1.10)-1*%
%TF.CreationDate,2021-06-29T11:34:31+10:00*%
%TF.ProjectId,psu-board,7073752d-626f-4617-9264-2e6b69636164,rev?*%
%TF.SameCoordinates,Original*%
%TF.FileFunction,Soldermask,Bot*%
%TF.FilePolarity,Negative*%
%FSLAX46Y46*%
G04 Gerber Fmt 4.6, Leading zero omitted, Abs format (unit mm)*
G04 Created by KiCad (PCBNEW (5.1.10)-1) date 2021-06-29 11:34:31*
%MOMM*%
%LPD*%
G01*
G04 APERTURE LIST*
%ADD10O,1.700000X1.700000*%
%ADD11R,1.700000X1.700000*%
%ADD12O,2.700000X3.300000*%
%ADD13C,2.780000*%
%ADD14R,2.780000X2.780000*%
G04 APERTURE END LIST*
D10*
%TO.C,SW1*%
X14420000Y9017000D03*
X14420000Y11557000D03*
D11*
X14420000Y14097000D03*
%TD*%
D12*
%TO.C,J1*%
X57368000Y129325000D03*
X61568000Y129325000D03*
X65768000Y129325000D03*
X69968000Y129325000D03*
X74168000Y129325000D03*
X57368000Y123825000D03*
X61568000Y123825000D03*
X65768000Y123825000D03*
X69968000Y123825000D03*
G36*
G01*
X75518000Y125224999D02*
X75518000Y122425001D01*
G75*
G02*
X75267999Y122175000I-250001J0D01*
G01*
X73068001Y122175000D01*
G75*
G02*
X72818000Y122425001I0J250001D01*
G01*
X72818000Y125224999D01*
G75*
G02*
X73068001Y125475000I250001J0D01*
G01*
X75267999Y125475000D01*
G75*
G02*
X75518000Y125224999I0J-250001D01*
G01*
G37*
%TD*%
%TO.C,J2*%
X12165000Y129325000D03*
X16365000Y129325000D03*
X20565000Y129325000D03*
X24765000Y129325000D03*
X12165000Y123825000D03*
X16365000Y123825000D03*
X20565000Y123825000D03*
G36*
G01*
X26115000Y125224999D02*
X26115000Y122425001D01*
G75*
G02*
X25864999Y122175000I-250001J0D01*
G01*
X23665001Y122175000D01*
G75*
G02*
X23415000Y122425001I0J250001D01*
G01*
X23415000Y125224999D01*
G75*
G02*
X23665001Y125475000I250001J0D01*
G01*
X25864999Y125475000D01*
G75*
G02*
X26115000Y125224999I0J-250001D01*
G01*
G37*
%TD*%
D11*
%TO.C,SW1*%
X24580000Y14097000D03*
D10*
X24580000Y11557000D03*
X24580000Y9017000D03*
%TD*%
D13*
%TO.C,J4*%
X117475000Y128651000D03*
X122555000Y128651000D03*
X127635000Y128651000D03*
D14*
X132715000Y128651000D03*
%TD*%
D10*
%TO.C,J3*%
X223774000Y128778000D03*
D11*
X223774000Y131318000D03*
%TD*%
D12*
%TO.C,J5*%
X82369000Y129325000D03*
X86569000Y129325000D03*
X90769000Y129325000D03*
X94969000Y129325000D03*
X99169000Y129325000D03*
X103369000Y129325000D03*
X107569000Y129325000D03*
X82369000Y123825000D03*
X86569000Y123825000D03*
X90769000Y123825000D03*
X94969000Y123825000D03*
X99169000Y123825000D03*
X103369000Y123825000D03*
G36*
G01*
X108919000Y125224999D02*
X108919000Y122425001D01*
G75*
G02*
X108668999Y122175000I-250001J0D01*
G01*
X106469001Y122175000D01*
G75*
G02*
X106219000Y122425001I0J250001D01*
G01*
X106219000Y125224999D01*
G75*
G02*
X106469001Y125475000I250001J0D01*
G01*
X108668999Y125475000D01*
G75*
G02*
X108919000Y125224999I0J-250001D01*
G01*
G37*
%TD*%
M02*
